<svg width="252" height="60" viewBox="0 0 252 60" version="1.1" xmlns="http://www.w3.org/2000/svg" xmlns:xlink="http://www.w3.org/1999/xlink">
<title>logo</title>
<desc>Created using Figma</desc>
<g id="Canvas" transform="matrix(2 0 0 2 674 -2812)">
<g id="logo">
<g id="Group 3">
<g id="Fill 1">
<use xlink:href="#path0_fill" transform="translate(-337 1406)" fill="#00B4F1"/>
</g>
</g>
<g id="Fill 4">
<use xlink:href="#path1_fill" transform="translate(-220.493 1415.51)" fill="#06192A"/>
</g>
<g id="Fill 7">
<use xlink:href="#path2_fill" transform="translate(-235.665 1415.35)" fill="#06192A"/>
</g>
<g id="Fill 9">
<use xlink:href="#path3_fill" transform="translate(-249.875 1415.51)" fill="#06192A"/>
</g>
<g id="Fill 11">
<use xlink:href="#path4_fill" transform="translate(-300 1415.35)" fill="#06192A"/>
</g>
<g id="Fill 14">
<use xlink:href="#path5_fill" transform="translate(-265.03 1415.35)" fill="#06192A"/>
</g>
<g id="Fill 17">
<use xlink:href="#path6_fill" transform="translate(-276.762 1415.51)" fill="#06192A"/>
</g>
<g id="Fill 19">
<use xlink:href="#path7_fill" transform="translate(-283.917 1415.51)" fill="#06192A"/>
</g>
</g>
</g>
<defs>
<path id="path0_fill" fill-rule="evenodd" d="M 15.0394 21.161C 14.2417 24.1291 11.1788 25.8904 8.19995 25.0956C 5.22109 24.2999 3.45274 21.2488 4.25132 18.2805C 5.04989 15.3113 8.11178 13.5501 11.0906 14.3458C 14.0696 15.1406 15.8379 18.1926 15.0394 21.161ZM 18.9625 22.2083C 17.8113 26.4901 13.9126 29.39 9.47577 29.3325C 4.2276 29.2413 0 24.9738 0 19.7214L 0 12.1081C 1.67511 12.1081 3.04586 13.474 3.04586 15.1431L 3.04586 19.7214C 3.04586 23.3317 5.96456 26.262 9.57829 26.2983C 12.6039 26.2983 15.2326 24.3503 16.021 21.4227L 19.0066 10.3182C 19.2227 9.51229 20.0628 9.02916 20.8716 9.24533C 21.6803 9.46167 22.1652 10.2979 21.9482 11.1037L 18.9625 22.2083ZM 15.9497 17.7736L 19.2567 5.47883C 19.4728 4.673 18.9888 3.83682 18.1793 3.62057C 17.3705 3.40515 16.5313 3.88744 16.3142 4.69335L 13.6745 14.5097C 14.7562 15.3408 15.5497 16.488 15.9497 17.7736ZM 12.7794 13.931L 16.0108 1.90999C 16.2278 1.10416 15.7438 0.267809 14.9342 0.0516377C 14.1255 -0.164618 13.2863 0.31851 13.0693 1.12442L 9.83691 13.1463C 10.3396 13.1598 10.8481 13.2324 11.3535 13.3676C 11.8603 13.5028 12.3368 13.6936 12.7794 13.931ZM 8.77138 13.2003L 11.2331 4.04366C 11.4501 3.23783 10.9652 2.40156 10.1565 2.1853C 9.34693 1.96905 8.50769 2.45218 8.29058 3.25809L 5.16177 14.8931C 6.15526 13.9791 7.41666 13.3811 8.77138 13.2003ZM 12.0978 20.3752C 11.735 21.7242 10.343 22.5242 8.9883 22.1626C 7.6346 21.8011 6.83088 20.4149 7.19371 19.0659C 7.55655 17.716 8.94848 16.9153 10.3023 17.2769C 11.657 17.6383 12.4605 19.0254 12.0978 20.3752Z"/>
<path id="path1_fill" fill-rule="evenodd" d="M 0 6.95204C 0 9.38022 1.93431 11.3456 4.44709 11.3456C 6.97359 11.3456 8.9091 9.38022 8.9091 6.95204L 8.9091 0.302535C 8.9091 0.143887 8.76508 0 8.60465 0L 7.08582 0C 6.90912 0 6.78152 0.143887 6.78152 0.302535L 6.78152 6.85467C 6.78152 8.19826 5.83846 9.26943 4.44709 9.26943C 3.05422 9.26943 2.12609 8.19826 2.12609 6.83976L 2.12609 0.302535C 2.12609 0.143887 2.00013 0 1.82328 0L 0.30296 0C 0.144018 0 0 0.143887 0 0.302535L 0 6.95204Z"/>
<path id="path2_fill" fill-rule="evenodd" d="M 3.72766 7.52726L 5.29439 4.01135L 5.34245 4.01135L 6.94381 7.52726L 3.72766 7.52726ZM 10.6381 10.9306L 5.71123 0.17505C 5.66332 0.0793241 5.60049 0 5.43842 0L 5.27947 0C 5.1356 0 5.05457 0.0793241 5.00666 0.17505L 0.0318559 10.9306C -0.0639569 11.1388 0.0648382 11.3471 0.304669 11.3471L 1.69619 11.3471C 1.95244 11.3471 2.09497 11.1868 2.16078 11.0265L 2.94355 9.30104L 7.72643 9.30104L 8.51054 11.0265C 8.62307 11.2512 8.73396 11.3471 8.97364 11.3471L 10.3655 11.3471C 10.6051 11.3471 10.7341 11.1388 10.6381 10.9306Z"/>
<path id="path3_fill" fill-rule="evenodd" d="M 0 10.8841C 0 11.0429 0.142376 11.1868 0.304303 11.1868L 1.79164 11.1868C 1.967 11.1868 2.09445 11.0429 2.09445 10.8841L 2.09445 6.47102L 7.30923 6.47102L 7.30923 10.8841C 7.30923 11.0429 7.43818 11.1868 7.61354 11.1868L 9.08595 11.1868C 9.24623 11.1868 9.39025 11.0429 9.39025 10.8841L 9.39025 0.302535C 9.39025 0.143887 9.24623 0 9.08595 0L 7.61354 0C 7.43818 0 7.30923 0.143887 7.30923 0.302535L 7.30923 4.53877L 2.09445 4.53877L 2.09445 0.302535C 2.09445 0.143887 1.967 0 1.79164 0L 0.304303 0C 0.142376 0 0 0.143887 0 0.302535L 0 10.8841Z"/>
<path id="path4_fill" fill-rule="evenodd" d="M 5.74251 9.42975C 3.7273 9.42975 2.07968 7.78348 2.07968 5.76862C 2.07968 3.75525 3.7273 2.07751 5.74251 2.07751C 7.75905 2.07751 9.4219 3.75525 9.4219 5.76862C 9.4219 7.78348 7.75905 9.42975 5.74251 9.42975ZM 5.7425 0C 2.54441 0 0 2.57356 0 5.76859C 0 8.96541 2.54441 11.5059 5.7425 11.5059C 8.94193 11.5059 11.5014 8.96541 11.5014 5.76859C 11.5014 2.57356 8.94193 0 5.7425 0Z"/>
<path id="path5_fill" fill-rule="evenodd" d="M 0 5.76859C 0 8.96526 2.57575 11.5059 5.77533 11.5059C 7.19805 11.5059 8.57465 11.0114 9.66157 9.95696C 9.7741 9.84453 9.80559 9.63638 9.67814 9.52545L 8.68554 8.50244C 8.58972 8.40656 8.41407 8.39001 8.28676 8.50244C 7.61518 9.04607 6.79958 9.41317 5.83981 9.41317C 3.79192 9.41317 2.25653 7.71889 2.25653 5.72073C 2.25653 3.7075 3.7752 1.99667 5.82339 1.99667C 6.71854 1.99667 7.61518 2.35035 8.28676 2.94051C 8.41407 3.06918 8.57465 3.06918 8.68554 2.94051L 9.66157 1.93375C 9.78918 1.80492 9.78918 1.61332 9.64516 1.48733C 8.55808 0.510686 7.39012 0 5.77533 0C 2.57575 0 0 2.57341 0 5.76859Z"/>
<path id="path6_fill" fill-rule="evenodd" d="M 2.75275 10.8841C 2.75275 11.0429 2.89677 11.1868 3.05571 11.1868L 4.54305 11.1868C 4.70498 11.1868 4.84885 11.0429 4.84885 10.8841L 4.84885 1.9172L 7.2958 1.9172C 7.47116 1.9172 7.59861 1.77346 7.59861 1.61466L 7.59861 0.302535C 7.59861 0.143887 7.47116 0 7.2958 0L 0.305944 0C 0.128944 0 0 0.143887 0 0.302535L 0 1.61466C 0 1.77346 0.128944 1.9172 0.305944 1.9172L 2.75275 1.9172L 2.75275 10.8841Z"/>
<path id="path7_fill" fill-rule="evenodd" d="M 0 10.8841C 0 11.0429 0.143868 11.1868 0.30281 11.1868L 1.79015 11.1868C 1.95058 11.1868 2.0946 11.0429 2.0946 10.8841L 2.0946 0.302535C 2.0946 0.143887 1.95058 0 1.79015 0L 0.30281 0C 0.143868 0 0 0.143887 0 0.302535L 0 10.8841Z"/>
</defs>
</svg>
